<svg width="14" height="14" viewBox="0 0 14 14" fill="none" xmlns="http://www.w3.org/2000/svg">
<path d="M5.48074 3.72702C6.07409 1.8152 6.37077 0.859288 6.90541 0.795593C6.96825 0.788106 7.0317 0.788106 7.09455 0.795593C7.62918 0.859288 7.92586 1.8152 8.51922 3.72702C8.68376 4.25718 8.76603 4.52227 8.95639 4.68507C8.98086 4.706 9.00645 4.72546 9.03302 4.74336C9.23975 4.88259 9.50598 4.88259 10.0385 4.88259C11.9586 4.88259 12.9187 4.88259 13.1417 5.39522C13.1679 5.45548 13.1876 5.51866 13.2002 5.58355C13.3075 6.13555 12.5308 6.72634 10.9774 7.90791C10.5466 8.23557 10.3312 8.3994 10.2422 8.63924C10.2307 8.67008 10.2209 8.70156 10.2129 8.73356C10.1503 8.98241 10.2326 9.24749 10.3971 9.77766C10.9905 11.6895 11.2871 12.6454 10.8904 13.0259C10.8437 13.0706 10.7924 13.1097 10.7373 13.1423C10.2691 13.4198 9.49234 12.829 7.93892 11.6474C7.50814 11.3197 7.29275 11.1559 7.04734 11.1413C7.01579 11.1395 6.98417 11.1395 6.95262 11.1413C6.7072 11.1559 6.49181 11.3197 6.06104 11.6474C4.50762 12.829 3.7309 13.4198 3.26262 13.1423C3.20757 13.1097 3.15623 13.0706 3.10959 13.0259C2.71283 12.6454 3.00951 11.6895 3.60286 9.77766C3.7674 9.24749 3.84967 8.98241 3.78707 8.73356C3.77903 8.70156 3.76925 8.67008 3.7578 8.63924C3.66873 8.3994 3.45334 8.23557 3.02256 7.90791C1.46914 6.72634 0.69243 6.13555 0.799778 5.58355C0.812397 5.51866 0.832005 5.45548 0.858227 5.39522C1.0813 4.88259 2.04137 4.88259 3.9615 4.88259C4.49397 4.88259 4.76021 4.88259 4.96693 4.74336C4.99351 4.72546 5.01909 4.706 5.04357 4.68507C5.23393 4.52227 5.3162 4.25718 5.48074 3.72702Z" fill="#F2C94C"/>
</svg>
