<svg width="12" height="14" viewBox="0 0 12 14" fill="none" xmlns="http://www.w3.org/2000/svg">
<path d="M11.8755 7.00765C11.8813 6.56246 11.6401 6.1533 11.2485 5.93855L2.12272 0.924573C1.71397 0.693561 1.23213 0.721942 0.846972 0.984948C0.454748 1.25238 0.25399 1.88902 0.363635 2.34883L1.21557 5.9181C1.30302 6.2841 1.63059 6.54181 2.00744 6.5402L7.08592 6.52445C7.34599 6.51923 7.5569 6.73014 7.55168 6.99021C7.55089 7.24585 7.34309 7.45365 7.08302 7.45887L1.99971 7.47067C1.62286 7.4714 1.29369 7.73026 1.20396 8.09681L0.321902 11.6803C0.214806 12.1037 0.336907 12.5265 0.635696 12.8253C0.670848 12.8604 0.710394 12.9 0.749967 12.9307C1.13691 13.2292 1.64366 13.2673 2.07632 13.0368L11.2331 8.07187C11.626 7.86349 11.8697 7.45283 11.8755 7.00765" fill="#0052B3"/>
</svg>
