<svg width="8" height="15" viewBox="0 0 8 15" fill="none" xmlns="http://www.w3.org/2000/svg">
<path d="M7.7348 1.67828C8.10941 1.27246 8.0841 0.6398 7.67828 0.265197C7.27246 -0.109407 6.6398 -0.0841008 6.2652 0.32172L7.7348 1.67828ZM1 7.5L0.265197 6.82172C-0.00421429 7.11358 -0.075351 7.53722 0.0839541 7.90107C0.243259 8.26492 0.602803 8.5 1 8.5V7.5ZM7 7.5L7.7348 8.17828C8.00421 7.88642 8.07535 7.46278 7.91605 7.09893C7.75674 6.73508 7.3972 6.5 7 6.5V7.5ZM0.265197 13.3217C-0.109407 13.7275 -0.0841008 14.3602 0.32172 14.7348C0.727541 15.1094 1.3602 15.0841 1.7348 14.6783L0.265197 13.3217ZM6.2652 0.32172L0.265197 6.82172L1.7348 8.17828L7.7348 1.67828L6.2652 0.32172ZM1 8.5H7V6.5H1V8.5ZM6.2652 6.82172L0.265197 13.3217L1.7348 14.6783L7.7348 8.17828L6.2652 6.82172Z" fill="#0052B3"/>
</svg>
