<svg width="58" height="54" viewBox="0 0 58 54" fill="none" xmlns="http://www.w3.org/2000/svg">
<path fill-rule="evenodd" clip-rule="evenodd" d="M21.9167 28.5688C29.7213 28.5688 35.9775 22.2316 35.9775 14.3261C35.9775 6.42045 29.7213 0.0833359 21.9167 0.0833359C14.1121 0.0833359 7.8559 6.42045 7.8559 14.3261C7.8559 22.2316 14.1121 28.5688 21.9167 28.5688ZM21.9167 35.543C10.4537 35.543 0.666687 37.3758 0.666687 44.6983C0.666687 52.0178 10.3941 53.9167 21.9167 53.9167C33.3769 53.9167 43.1667 52.0839 43.1667 44.7615C43.1667 37.439 33.4393 35.543 21.9167 35.543ZM51.3775 20.1656H54.7863C56.1893 20.1656 57.3334 21.3257 57.3334 22.7485C57.3334 24.1713 56.1893 25.3314 54.7863 25.3314H51.3775V28.6671C51.3775 30.0899 50.2364 31.25 48.8304 31.25C47.4274 31.25 46.2834 30.0899 46.2834 28.6671V25.3314H42.8804C41.4744 25.3314 40.3334 24.1713 40.3334 22.7485C40.3334 21.3257 41.4744 20.1656 42.8804 20.1656H46.2834V16.8329C46.2834 15.4101 47.4274 14.25 48.8304 14.25C50.2364 14.25 51.3775 15.4101 51.3775 16.8329V20.1656Z" fill="#4D94FF"/>
</svg>
