<svg width="58" height="58" viewBox="0 0 58 58" fill="none" xmlns="http://www.w3.org/2000/svg">
<path fill-rule="evenodd" clip-rule="evenodd" d="M15.7695 0.667801H42.23C51.8661 0.667801 57.3061 6.1333 57.3345 15.7695V42.2328C57.3345 51.8661 51.8661 57.3345 42.23 57.3345H15.7695C6.1333 57.3345 0.667801 51.8661 0.667801 42.2328V15.7695C0.667801 6.1333 6.1333 0.667801 15.7695 0.667801ZM29.14 45.6045C30.3611 45.6045 31.3783 44.6978 31.4916 43.4795V14.6078C31.605 13.7295 31.1828 12.8483 30.4178 12.3695C29.6216 11.8878 28.6583 11.8878 27.8961 12.3695C27.1283 12.8483 26.7061 13.7295 26.7883 14.6078V43.4795C26.9328 44.6978 27.95 45.6045 29.14 45.6045ZM42.1761 45.6045C43.3661 45.6045 44.3833 44.6978 44.5278 43.4795V34.1861C44.61 33.2766 44.1878 32.4295 43.42 31.9478C42.6578 31.4661 41.6945 31.4661 40.9011 31.9478C40.1333 32.4295 39.7111 33.2766 39.8245 34.1861V43.4795C39.9378 44.6978 40.955 45.6045 42.1761 45.6045ZM18.2883 43.4795C18.175 44.6978 17.1578 45.6045 15.9366 45.6045C14.7183 45.6045 13.6983 44.6978 13.5878 43.4795V23.9011C13.5028 23.02 13.925 22.1445 14.6928 21.6628C15.455 21.1811 16.4211 21.1811 17.1861 21.6628C17.9483 22.1445 18.3761 23.02 18.2883 23.9011V43.4795Z" fill="#4D94FF"/>
</svg>
