<svg width="65" height="46" viewBox="0 0 65 46" fill="none" xmlns="http://www.w3.org/2000/svg">
<path d="M63.0856 2.30616C59.146 0.63558 55.2034 1.23498e-07 51.2629 1.23498e-07C38.7536 -0.00102666 26.2454 6.40098 13.7361 6.40098C10.5989 6.40098 7.46371 5.99848 4.32649 4.99223C3.97408 4.87929 3.62065 4.82589 3.27534 4.82589C1.52748 4.82589 0 6.19357 0 8.0921V40.6679C0 41.9647 0.734285 43.1938 1.91341 43.6928C5.85296 45.3644 9.79555 46 13.7361 46C26.2454 46 38.7546 39.598 51.2639 39.598C54.4011 39.598 57.5363 40.0005 60.6735 41.0067C61.0259 41.1197 61.3794 41.1731 61.7247 41.1731C63.4725 41.1731 65 39.8054 65 37.9069V5.3321C64.999 4.03424 64.2647 2.80621 63.0856 2.30616ZM4.87492 10.2904C6.91833 10.8079 9.05111 11.0677 11.2448 11.2074C10.6476 14.2251 8.02331 16.4994 4.87492 16.4994V10.2904ZM4.87492 39.5538V34.6479C8.36557 34.6479 11.19 37.4479 11.3454 40.9523C9.0572 40.7665 6.91833 40.3044 4.87492 39.5538ZM32.4995 32.8571C28.0115 32.8571 24.3746 28.443 24.3746 23C24.3746 17.556 28.0125 13.1429 32.4995 13.1429C36.9865 13.1429 40.6244 17.556 40.6244 23C40.6244 28.445 36.9854 32.8571 32.4995 32.8571ZM60.1241 35.7096C58.3447 35.2588 56.4973 35.0062 54.6073 34.8429C55.2034 32.1651 57.4002 30.1321 60.1241 29.7829V35.7096ZM60.1241 11.4661C56.9868 11.0646 54.5524 8.41656 54.4559 5.14625C56.4404 5.36906 58.3244 5.78594 60.1241 6.44616V11.4661Z" fill="#4D94FF"/>
</svg>
