<svg width="55" height="55" viewBox="0 0 55 55" fill="none" xmlns="http://www.w3.org/2000/svg">
<path d="M20.0384 10.9917C14.2584 17.48 10.2917 26.8017 9.92336 27.68L3.52003 24.9317C1.67836 24.1383 1.22503 21.73 2.64169 20.3133L11.17 11.785C12.5017 10.4533 14.4284 9.85833 16.2984 10.2267L20.0384 10.9917ZM24.26 39.7783C25.11 40.6283 26.3567 40.855 27.4334 40.345C30.72 38.815 37.775 35.2167 42.3367 30.655C55.3417 17.65 55.455 7.05333 54.69 2.52C54.5898 1.96315 54.3216 1.45028 53.9215 1.0502C53.5214 0.650111 53.0085 0.381943 52.4517 0.281668C47.9184 -0.483332 37.3217 -0.369999 24.3167 12.635C19.755 17.1967 16.185 24.2517 14.6267 27.5383C14.1167 28.615 14.3717 29.89 15.1934 30.7117L24.26 39.7783ZM44.0084 34.9617C37.52 40.7417 28.1984 44.7083 27.32 45.0767L30.0684 51.48C30.8617 53.3217 33.27 53.775 34.6867 52.3583L43.215 43.83C44.5467 42.4983 45.1417 40.5717 44.7734 38.7017L44.0084 34.9617ZM19.33 42.3283C19.6048 43.7005 19.5365 45.1194 19.1312 46.4588C18.7259 47.7983 17.9961 49.017 17.0067 50.0067C14.825 52.1883 8.05336 53.8033 3.66169 54.6533C1.70669 55.0217 -0.0216408 53.2933 0.346693 51.3383C1.19669 46.9467 2.78336 40.175 4.99336 37.9933C5.98305 37.0039 7.20173 36.2742 8.5412 35.8689C9.88067 35.4636 11.2995 35.3953 12.6717 35.67C15.9867 36.2933 18.7067 39.0133 19.33 42.3283ZM30.8334 18.5C30.8334 15.3833 33.3834 12.8333 36.5 12.8333C39.6167 12.8333 42.1667 15.3833 42.1667 18.5C42.1667 21.6167 39.6167 24.1667 36.5 24.1667C33.3834 24.1667 30.8334 21.6167 30.8334 18.5Z" fill="#4D94FF"/>
</svg>
