<svg width="1192" height="220" viewBox="0 0 1192 220" fill="none" xmlns="http://www.w3.org/2000/svg"> <g clip-path="url(#clip0_136_6488)"> <rect width="1192" height="220" fill="#E0ECFF"/> <path opacity="0.2" fill-rule="evenodd" clip-rule="evenodd" d="M290.5 306C362.573 306 421 247.797 421 176C421 104.203 362.573 46 290.5 46C218.427 46 160 104.203 160 176C160 247.797 218.427 306 290.5 306Z" fill="url(#paint0_linear_136_6488)"/> <path opacity="0.2" fill-rule="evenodd" clip-rule="evenodd" d="M1087 240C1156.59 240 1213 183.364 1213 113.5C1213 43.636 1156.59 -13 1087 -13C1017.41 -13 961 43.636 961 113.5C961 183.364 1017.41 240 1087 240Z" fill="url(#paint1_linear_136_6488)"/> <path opacity="0.1" fill-rule="evenodd" clip-rule="evenodd" d="M73 306C188.428 306 282 212.204 282 96.5C282 -19.2037 188.428 -113 73 -113C-42.4275 -113 -136 -19.2037 -136 96.5C-136 212.204 -42.4275 306 73 306Z" fill="url(#paint2_linear_136_6488)"/> <path opacity="0.1" fill-rule="evenodd" clip-rule="evenodd" d="M1061 -20.5C1061 -133.442 969.442 -225 856.5 -225C743.558 -225 652 -133.442 652 -20.5C652 92.4422 743.558 184 856.5 184C969.442 184 1061 92.4422 1061 -20.5Z" fill="url(#paint3_linear_136_6488)"/> <path opacity="0.1" fill-rule="evenodd" clip-rule="evenodd" d="M672.5 117C683.822 117 693 107.822 693 96.5C693 85.1782 683.822 76 672.5 76C661.178 76 652 85.1782 652 96.5C652 107.822 661.178 117 672.5 117Z" fill="#4D94FF"/> </g> <defs> <linearGradient id="paint0_linear_136_6488" x1="290.5" y1="46" x2="290.5" y2="306" gradientUnits="userSpaceOnUse"> <stop stop-color="#4D94FF"/> <stop offset="1" stop-color="#4D94FF" stop-opacity="0"/> </linearGradient> <linearGradient id="paint1_linear_136_6488" x1="1087" y1="-13" x2="1087" y2="240" gradientUnits="userSpaceOnUse"> <stop stop-color="#4D94FF"/> <stop offset="1" stop-color="#4D94FF" stop-opacity="0"/> </linearGradient> <linearGradient id="paint2_linear_136_6488" x1="73" y1="-113" x2="73" y2="306" gradientUnits="userSpaceOnUse"> <stop stop-color="#4D94FF"/> <stop offset="1" stop-color="#4D94FF" stop-opacity="0"/> </linearGradient> <linearGradient id="paint3_linear_136_6488" x1="652" y1="-20.5" x2="1061" y2="-20.5" gradientUnits="userSpaceOnUse"> <stop stop-color="#4D94FF"/> <stop offset="1" stop-color="#4D94FF" stop-opacity="0"/> </linearGradient> <clipPath id="clip0_136_6488"> <rect width="1192" height="220" fill="white"/> </clipPath> </defs> </svg>