<svg width="106" height="106" viewBox="0 0 106 106" fill="none" xmlns="http://www.w3.org/2000/svg">
<path d="M53 0C23.7307 0 0 23.7307 0 53C0 82.2692 23.7307 106 53 106C82.2692 106 106 82.2692 106 53C106 23.7307 82.2692 0 53 0ZM22.0833 84.5394C27.2376 69.0811 42.6959 75.1142 45.2708 66.7402V61.1576C44.1137 60.5348 40.7967 56.2595 40.4478 52.9205C39.5336 52.841 38.1026 51.9356 37.6786 48.3537C37.4533 46.4324 38.3543 45.3503 38.8976 45.0102C38.8976 45.0102 37.5372 41.9097 37.5372 38.8313C37.5417 29.68 42.0732 22.0833 53 22.0833C58.9007 22.0833 60.7292 26.2659 60.7292 26.2659C66.0027 26.2659 68.4583 32.0473 68.4583 38.8269C68.4583 42.2057 67.098 45.0058 67.098 45.0058C67.6457 45.3459 68.5467 46.428 68.3214 48.3492C67.8974 51.9312 66.4664 52.8366 65.5522 52.9161C65.2032 56.2551 61.8907 60.5304 60.7292 61.1532V66.7358C63.3041 75.1142 78.7624 69.0811 83.9167 84.5394C83.9167 84.5394 72.3538 97.1667 53 97.1667C33.5357 97.1667 22.0833 84.5394 22.0833 84.5394Z" fill="#EDF1F4"/>
</svg>

