<svg width="19" height="19" viewBox="0 0 19 19" fill="none" xmlns="http://www.w3.org/2000/svg">
<path d="M10.5417 18.875H6.375V6.375H10.5417V8.45833C10.9803 7.90028 11.537 7.44622 12.1718 7.12871C12.8067 6.8112 13.5039 6.63812 14.2135 6.62188C15.4546 6.62876 16.6422 7.12752 17.5161 8.00878C18.3899 8.89004 18.8786 10.0819 18.875 11.3229V18.875H14.7083V11.8438C14.6277 11.2808 14.3465 10.7659 13.9165 10.3938C13.4864 10.0218 12.9364 9.81753 12.3677 9.81875C12.1132 9.82679 11.8629 9.88618 11.6319 9.99333C11.4009 10.1005 11.1939 10.2532 11.0234 10.4423C10.8528 10.6314 10.7223 10.853 10.6395 11.0939C10.5567 11.3347 10.5234 11.5898 10.5417 11.8438V18.875ZM4.29167 18.875H0.125V6.375H4.29167V18.875ZM2.20833 4.29167C1.6558 4.29167 1.12589 4.07217 0.735194 3.68147C0.344493 3.29077 0.125 2.76087 0.125 2.20833C0.125 1.6558 0.344493 1.12589 0.735194 0.735194C1.12589 0.344493 1.6558 0.125 2.20833 0.125C2.76087 0.125 3.29077 0.344493 3.68147 0.735194C4.07217 1.12589 4.29167 1.6558 4.29167 2.20833C4.29167 2.76087 4.07217 3.29077 3.68147 3.68147C3.29077 4.07217 2.76087 4.29167 2.20833 4.29167Z" fill="#0052B3"/>
</svg>
